HIERARCHY
ROOT Hips
{
	OFFSET 0.000000 8.830580 0.000000
	CHANNELS 6 Xposition Yposition Zposition Zrotation Yrotation Xrotation 
	JOINT Spine
	{
		OFFSET 0.000000 0.010000 0.000000
		CHANNELS 3 Zrotation Yrotation Xrotation
		JOINT Spine1
		{
			OFFSET 0.000000 2.459130 0.000000
			CHANNELS 3 Zrotation Yrotation Xrotation
			JOINT Neck
			{
				OFFSET 0.000000 2.484630 0.000000
				CHANNELS 3 Zrotation Yrotation Xrotation
				JOINT Head_virtual
				{
					OFFSET 0.000000 0.000000 0.000000
					CHANNELS 3 Zrotation Yrotation Xrotation
					JOINT Head
					{
						OFFSET 0.000000 0.927525 0.000000
						CHANNELS 3 Zrotation Yrotation Xrotation
						End Site
						{
							OFFSET 0.000000 0.000000 0.000000
						}
					}
				}
				JOINT LeftUpArm_virtual
				{
					OFFSET 0.000000 0.000000 0.000000
					CHANNELS 3 Zrotation Yrotation Xrotation
					JOINT LeftUpArm
					{
						OFFSET 1.248820 0.000000 0.000000
						CHANNELS 3 Zrotation Yrotation Xrotation
						JOINT LeftForeArm
						{
							OFFSET 2.597580 0.000000 0.000000
							CHANNELS 3 Zrotation Yrotation Xrotation
							JOINT LeftHand
							{
								OFFSET 2.455420 0.000000 0.000000
								CHANNELS 3 Zrotation Yrotation Xrotation
								End Site
								{
									OFFSET 0.000000 0.000000 0.000000
								}
							}
						}
					}
				}
				JOINT RightUpArm_virtual
				{
					OFFSET -0.000000 -0.000000 -0.000000
					CHANNELS 3 Zrotation Yrotation Xrotation
					JOINT RightUpArm
					{
						OFFSET -1.248820 -0.000000 -0.000000
						CHANNELS 3 Zrotation Yrotation Xrotation
						JOINT RightForeArm
						{
							OFFSET -2.597580 -0.000000 -0.000000
							CHANNELS 3 Zrotation Yrotation Xrotation
							JOINT RightHand
							{
								OFFSET -2.455420 -0.000000 -0.000000
								CHANNELS 3 Zrotation Yrotation Xrotation
								End Site
								{
									OFFSET 0.000000 0.000000 0.000000
								}
							}
						}
					}
				}
			}
		}
	}
	JOINT LeftUpLeg
	{
		OFFSET 1.271939 0.000000 0.000000
		CHANNELS 3 Zrotation Yrotation Xrotation
		JOINT LeftLowLeg
		{
			OFFSET 0.000000 -4.342910 0.000000
			CHANNELS 3 Zrotation Yrotation Xrotation
			JOINT LeftFoot
			{
				OFFSET 0.000000 -4.487670 0.000000
				CHANNELS 3 Zrotation Yrotation Xrotation
				JOINT LeftToeBase
				{
					OFFSET 0.000000 0.000000 1.515070
					CHANNELS 3 Zrotation Yrotation Xrotation
					End Site
					{
						OFFSET 0.000000 0.000000 0.000000
					}
				}
			}
		}
	}
	JOINT RightUpLeg
	{
		OFFSET -1.271939 0.000000 0.000000
		CHANNELS 3 Zrotation Yrotation Xrotation
		JOINT RightLowLeg
		{
			OFFSET 0.000000 -4.342910 0.000000
			CHANNELS 3 Zrotation Yrotation Xrotation
			JOINT RightFoot
			{
				OFFSET 0.000000 -4.487670 0.000000
				CHANNELS 3 Zrotation Yrotation Xrotation
				JOINT RightToeBase
				{
					OFFSET 0.000000 0.000000 1.515070
					CHANNELS 3 Zrotation Yrotation Xrotation
					End Site
					{
						OFFSET 0.000000 0.000000 0.000000
					}
				}
			}
		}
	}
}
MOTION
Frames: 14
Frame Time: 0.041667
-15.033204 8.966932 37.885729 -177.824564 -12.032416 -161.831632 7.562853 -1.239346 -29.834286 -3.945549 0.143665 6.591591 0.000000 0.000000 0.000000 8.410193 4.882738 -5.760064 -15.306024 -10.645637 -78.293878 -30.961700 -2.287500 12.386600 -37.724899 -17.960199 1.510986 0.000000 -27.841400 0.000000 12.768900 6.706290 21.140900 32.123100 -2.281090 5.543640 38.978001 12.131600 14.479004 0.000000 27.299601 0.000000 -7.728120 -1.281060 1.177490 9.935972 -26.222968 -17.845775 0.000000 0.000000 6.794730 -2.339023 20.313128 -4.608253 0.000000 0.000000 -11.375870 0.269678 31.007211 -15.253264 0.000000 0.000000 2.741410 3.169732 -29.405866 1.979631 0.000000 0.000000 -17.916890 
-15.028718 8.966681 37.884923 -177.850734 -12.137114 -161.832825 7.530540 -1.243879 -29.906266 -4.000185 0.177545 6.588132 0.000000 0.000000 0.000000 8.644018 4.801183 -5.721364 -15.192801 -10.598894 -78.219069 -31.014799 -2.268750 12.490100 -37.724098 -18.108900 1.691010 0.000000 -27.626499 0.000000 12.691800 6.703420 21.303301 32.132099 -2.295580 5.571100 39.142502 12.034200 14.661987 0.000000 27.244499 0.000000 -7.451870 -1.174250 1.647310 9.974571 -26.290429 -17.881730 0.000000 0.000000 6.811500 -2.330731 20.293576 -4.589218 0.000000 0.000000 -11.405900 0.296050 30.966376 -15.208306 0.000000 0.000000 2.684320 3.186465 -29.446630 1.974569 0.000000 0.000000 -17.926320 
-15.024422 8.966399 37.884445 -177.867057 -12.209483 -161.830680 7.510882 -1.180869 -29.936907 -4.088175 0.244090 6.551930 0.000000 0.000000 0.000000 8.881148 4.717490 -5.694103 -15.044063 -10.573294 -78.189924 -31.028799 -2.178300 12.462700 -37.802299 -18.153900 2.062012 0.000000 -27.239000 0.000000 12.336600 6.613450 21.438700 32.189098 -2.355650 5.587370 39.287899 11.766300 14.837006 0.000000 27.147900 0.000000 -7.219520 -1.132550 1.840500 10.002986 -26.302872 -17.917971 0.000000 0.000000 6.845110 -2.342228 20.242904 -4.596673 0.000000 0.000000 -11.402480 0.320562 30.938470 -15.178330 0.000000 0.000000 2.630170 3.150054 -29.485411 2.001866 0.000000 0.000000 -17.945090 
-15.019945 8.965986 37.884314 -177.873516 -12.235202 -161.841380 7.485895 -1.093670 -29.931510 -4.154673 0.333171 6.511441 0.000000 0.000000 0.000000 9.061428 4.681581 -5.641465 -14.890895 -10.542890 -78.177032 -31.006701 -1.972080 12.193700 -38.004799 -18.089001 2.673004 0.000000 -26.658800 0.000000 11.888600 6.570530 21.726999 32.250000 -2.433950 5.582720 39.455799 11.373400 15.035004 0.000000 26.959200 0.000000 -7.026400 -1.193030 1.872750 10.027553 -26.310853 -17.926121 0.000000 0.000000 6.863970 -2.349018 20.236172 -4.606176 0.000000 0.000000 -11.399120 0.361273 30.896178 -15.153575 0.000000 0.000000 2.617720 3.164127 -29.450224 1.988307 0.000000 0.000000 -17.908050 
-15.015727 8.965440 37.885295 -177.879562 -12.214516 -161.831742 7.464440 -0.942021 -29.870948 -4.217715 0.455899 6.371282 0.000000 0.000000 0.000000 9.259936 4.585844 -5.560798 -14.751372 -10.586269 -78.217102 -30.973700 -1.773830 11.978500 -38.229900 -17.853100 3.110992 0.000000 -26.033001 0.000000 11.201200 6.483910 22.437300 32.326698 -2.538320 5.635230 39.623798 10.900200 15.061005 0.000000 26.562099 0.000000 -6.710960 -1.228860 1.969740 10.054606 -26.317069 -17.956306 0.000000 0.000000 6.889850 -2.383349 20.262842 -4.635226 0.000000 0.000000 -11.367930 0.371950 30.862401 -15.189273 0.000000 0.000000 2.644350 3.179309 -29.382646 1.981589 0.000000 0.000000 -17.937850 
-15.012533 8.964959 37.884147 -177.883153 -12.309836 -161.738046 7.462125 -0.872269 -29.960227 -4.240186 0.518769 6.313280 0.000000 0.000000 0.000000 9.369305 4.505521 -5.506653 -14.616601 -10.661920 -78.274836 -30.941099 -1.542960 11.823900 -38.490200 -17.527100 3.209015 0.000000 -25.359200 0.000000 10.353000 6.465430 23.332701 32.346600 -2.601480 5.675990 39.831100 10.335400 15.188995 0.000000 26.021299 0.000000 -6.432730 -1.317530 1.787240 10.169471 -26.412652 -18.117658 0.000000 0.000000 6.942230 -2.434789 20.272661 -4.671247 0.000000 0.000000 -11.388060 0.390701 30.707868 -15.256007 0.000000 0.000000 2.623450 3.169338 -29.301220 1.978172 0.000000 0.000000 -17.936210 
-15.006387 8.964843 37.878556 -177.905185 -12.120493 -161.796950 7.350774 -0.737567 -29.976039 -4.154963 0.764205 6.408132 0.000000 0.000000 0.000000 9.459997 4.431019 -5.491071 -14.461683 -10.736508 -78.334299 -30.924801 -1.358370 11.649900 -38.730499 -17.022600 3.226013 0.000000 -24.628500 0.000000 9.665600 6.516620 23.758400 32.429401 -2.715860 5.677550 39.984100 9.736470 15.257996 0.000000 25.378000 0.000000 -6.111080 -1.552800 1.536600 10.051585 -26.226275 -17.896633 0.000000 0.000000 6.838660 -2.438304 20.252911 -4.663720 0.000000 0.000000 -11.395240 0.396758 30.887935 -15.189653 0.000000 0.000000 2.640790 3.117430 -29.322208 1.998768 0.000000 0.000000 -17.937260 
-15.002548 8.963828 37.877110 -177.907152 -12.059649 -161.781913 7.327783 -0.611564 -29.998384 -4.136156 0.898860 6.432425 0.000000 0.000000 0.000000 9.828065 4.097494 -5.624195 -14.680974 -10.757335 -78.195076 -30.876301 -1.183770 11.594000 -38.978802 -16.444401 2.949005 0.000000 -23.883801 0.000000 8.979550 7.007380 24.042500 32.472000 -2.776300 5.746130 40.219002 9.107610 15.182007 0.000000 24.519800 0.000000 -5.869430 -1.748770 1.298940 10.068998 -26.228372 -17.899219 0.000000 0.000000 6.852730 -2.477685 20.311229 -4.717323 0.000000 0.000000 -11.359590 0.395049 30.941704 -15.208992 0.000000 0.000000 2.641520 3.097548 -29.323047 1.989378 0.000000 0.000000 -17.928140 
-14.998975 8.963092 37.876818 -177.905352 -11.990175 -161.731251 7.325477 -0.509047 -30.018106 -4.089827 0.996754 6.484306 0.000000 0.000000 0.000000 9.579619 4.231750 -5.594160 -14.436528 -10.874526 -78.396424 -30.886200 -0.946360 11.428700 -39.181599 -15.748900 2.635010 0.000000 -22.907000 0.000000 8.370870 7.217340 23.228701 32.509201 -2.869660 5.704670 40.463501 8.456710 15.117004 0.000000 23.507099 0.000000 -5.505920 -1.760610 1.431940 10.100993 -26.207976 -17.950019 0.000000 0.000000 6.874220 -2.505409 20.369476 -4.761685 0.000000 0.000000 -11.381410 0.370684 30.980753 -15.284973 0.000000 0.000000 2.656270 3.082046 -29.301769 1.988390 0.000000 0.000000 -17.931060 
-14.995273 8.962226 37.876069 -177.903433 -11.883757 -161.682238 7.333399 -0.369984 -30.054692 -4.099499 1.112775 6.543450 0.000000 0.000000 0.000000 9.860821 4.023274 -5.701878 -14.642611 -10.871279 -78.382748 -30.834999 -0.786680 11.336100 -39.405102 -14.922600 2.273987 0.000000 -21.835899 0.000000 8.118960 7.475930 22.497999 32.568401 -2.949570 5.695910 40.729000 7.792000 15.032013 0.000000 22.271999 0.000000 -5.098720 -1.748340 1.060260 10.112583 -26.152127 -17.975225 0.000000 0.000000 6.883750 -2.513720 20.440349 -4.806906 0.000000 0.000000 -11.362750 0.348433 31.003811 -15.362871 0.000000 0.000000 2.688480 3.098803 -29.209027 1.966076 0.000000 0.000000 -17.924530 
-14.991633 8.961495 37.874139 -177.913056 -11.856760 -161.661347 7.319913 -0.338800 -30.080880 -4.014150 1.172832 6.656801 0.000000 0.000000 0.000000 9.463583 4.304113 -5.601465 -14.306696 -10.986463 -78.683803 -30.828899 -0.560056 11.160100 -39.622002 -13.949200 2.033997 0.000000 -20.788000 0.000000 8.325910 7.839080 21.221001 32.617001 -3.051550 5.678850 40.937698 7.179040 15.001007 0.000000 21.009399 0.000000 -4.584960 -2.107440 0.408006 10.136597 -26.184592 -17.987717 0.000000 0.000000 6.889820 -2.504140 20.516334 -4.825423 0.000000 0.000000 -11.388960 0.338768 31.057557 -15.389914 0.000000 0.000000 2.699840 3.092127 -29.235167 1.949042 0.000000 0.000000 -17.922810 
-14.987584 8.960742 37.871975 -177.923523 -11.888947 -161.666309 7.288383 -0.383666 -30.096945 -3.850204 1.192815 6.766933 0.000000 0.000000 0.000000 9.343446 4.322823 -5.627182 -14.255689 -11.083543 -78.820720 -30.812599 -0.329338 11.089100 -39.874199 -13.036400 1.403015 0.000000 -19.478300 0.000000 8.184590 8.045750 20.561701 32.622299 -3.120430 5.649130 41.170898 6.525760 14.625000 0.000000 19.699800 0.000000 -3.715320 -2.826810 0.007761 10.164826 -26.226538 -17.989128 0.000000 0.000000 6.902970 -2.545810 20.517891 -4.855490 0.000000 0.000000 -11.371890 0.376485 31.043836 -15.365242 0.000000 0.000000 2.693140 3.022441 -29.270868 1.961991 0.000000 0.000000 -17.908420 
-14.983185 8.960390 37.868470 -177.943113 -11.862538 -161.731652 7.250530 -0.417202 -30.048580 -3.724417 1.218372 6.873842 0.000000 0.000000 0.000000 9.236715 4.410490 -5.601443 -14.251587 -11.110885 -78.963335 -30.814100 -0.057037 10.994800 -40.063400 -11.994100 1.075989 0.000000 -18.265400 0.000000 8.396380 8.509130 20.166201 32.667198 -3.217340 5.644170 41.364799 5.871970 14.717010 0.000000 18.177099 0.000000 -3.366300 -2.883520 -0.216015 10.126081 -26.230577 -17.875922 0.000000 0.000000 6.882330 -2.570196 20.534752 -4.869487 0.000000 0.000000 -11.359190 0.392515 31.209497 -15.297217 0.000000 0.000000 2.712010 3.004086 -29.421365 1.945257 0.000000 0.000000 -17.906590 
-14.981864 8.959733 37.870623 -177.927164 -12.029758 -161.682534 7.344745 -0.418343 -30.041884 -3.759622 1.116048 6.879741 0.000000 0.000000 0.000000 9.657935 4.095384 -5.761031 -14.684594 -11.059851 -78.857086 -30.761600 0.087923 11.000900 -40.279800 -10.933600 0.386993 0.000000 -16.874599 0.000000 8.527040 8.989730 20.845501 32.743198 -3.275600 5.617430 41.541500 5.139170 14.537994 0.000000 16.748501 0.000000 -2.844570 -3.242230 -0.383261 10.267708 -26.405706 -18.057637 0.000000 0.000000 6.972940 -2.603375 20.569441 -4.919643 0.000000 0.000000 -11.354640 0.432239 31.081812 -15.336032 0.000000 0.000000 2.681000 2.976784 -29.453717 1.954836 0.000000 0.000000 -17.902100 
